<svg width="47" height="47" viewBox="0 0 47 47" fill="none" xmlns="http://www.w3.org/2000/svg">
<path d="M41.6204 31.1178C40.3745 34.0641 38.4259 36.6603 35.9449 38.6795C33.4639 40.6987 30.526 42.0795 27.3881 42.7009C24.2502 43.3224 21.0078 43.1658 17.9444 42.2447C14.881 41.3236 12.0899 39.6661 9.81512 37.4171C7.54031 35.1681 5.85105 32.3961 4.89503 29.3435C3.93902 26.2908 3.74535 23.0504 4.33096 19.9057C4.91657 16.7609 6.26364 13.8074 8.25438 11.3035C10.2451 8.79955 12.8189 6.82141 15.7508 5.54199" fill="#A36BFD"/>
<path d="M41.6204 31.1178C40.3745 34.0641 38.4259 36.6603 35.9449 38.6795C33.4639 40.6988 30.526 42.0795 27.3881 42.7009C24.2502 43.3224 21.0078 43.1658 17.9444 42.2447C14.881 41.3236 12.0899 39.6661 9.81512 37.4171C7.54031 35.1681 5.85105 32.3961 4.89503 29.3435C3.93902 26.2908 3.74535 23.0504 4.33096 19.9057C4.91657 16.7609 6.26364 13.8074 8.25438 11.3035C10.2451 8.79955 12.8189 6.82141 15.7508 5.54199" stroke="white" stroke-linecap="round" stroke-linejoin="round"/>
<path d="M43.0833 23.5C43.0833 20.9283 42.5768 18.3817 41.5926 16.0058C40.6085 13.6298 39.166 11.471 37.3475 9.65248C35.529 7.834 33.3702 6.3915 30.9942 5.40735C28.6183 4.42319 26.0717 3.91666 23.5 3.91666V23.5H43.0833Z" fill="#60CDAC" stroke="white" stroke-linecap="round" stroke-linejoin="round"/>
</svg>
